<svg width="12" height="12" viewBox="0 0 12 12" fill="none" xmlns="http://www.w3.org/2000/svg">
<rect width="12" height="12" rx="6" fill="#6B6C6C"/>
<path d="M6 7.07038L7.95691 9.02733C8.25247 9.32289 8.73168 9.32289 9.02724 9.02733V9.02733C9.32279 8.73177 9.32279 8.25258 9.02724 7.95702L7.07031 6.00006L9.02735 4.04298C9.32291 3.74742 9.32291 3.26823 9.02735 2.97267V2.97267C8.73179 2.67711 8.25259 2.67711 7.95703 2.97267L6 4.92973L4.04297 2.97267C3.74741 2.67711 3.26821 2.67711 2.97265 2.97267V2.97267C2.67709 3.26823 2.67709 3.74742 2.97265 4.04298L4.92969 6.00006L2.97276 7.95702C2.67721 8.25258 2.67721 8.73177 2.97276 9.02733V9.02733C3.26832 9.32289 3.74752 9.32289 4.04308 9.02733L6 7.07038Z" fill="#EAEBEB"/>
</svg>
