<svg width="14" height="14" viewBox="0 0 14 14" fill="none" xmlns="http://www.w3.org/2000/svg">
<rect width="14" height="14" rx="7" fill="#FE5F57"/>
<rect width="14" height="14" rx="7" fill="black" fill-opacity="0.2"/>
<rect x="0.25" y="0.25" width="13.5" height="13.5" rx="6.75" stroke="black" stroke-opacity="0.5" stroke-width="0.5" style="mix-blend-mode:overlay"/>
<path opacity="0.7" d="M6.49999 7.00005L4.2501 9.24997C4.11203 9.38803 4.11203 9.61189 4.2501 9.74996V9.74996C4.38817 9.88803 4.61203 9.88803 4.7501 9.74996L6.99998 7.50005L9.2499 9.75C9.38797 9.88807 9.61183 9.88807 9.7499 9.75V9.75C9.88797 9.61193 9.88797 9.38808 9.7499 9.25001L7.49997 7.00005L9.75001 4.74999C9.88807 4.61192 9.88807 4.38807 9.75001 4.25V4.25C9.61194 4.11193 9.38808 4.11193 9.25001 4.25L6.99998 6.50006L4.74999 4.25004C4.61192 4.11197 4.38806 4.11197 4.24999 4.25004V4.25004C4.11193 4.38811 4.11192 4.61196 4.24999 4.75003L6.49999 7.00005Z" fill="black"/>
</svg>
